<svg width="97" height="90" viewBox="0 0 97 90" fill="none" xmlns="http://www.w3.org/2000/svg">
<g clip-path="url(#clip0)">
<path d="M40.3848 43.6631H20.6973V64H10.4434V14.2344H42.8457V22.54H20.6973V35.3916H40.3848V43.6631ZM86.459 14.2344V47.0127C86.459 52.4587 84.75 56.7653 81.332 59.9326C77.9368 63.0999 73.2884 64.6836 67.3867 64.6836C61.5762 64.6836 56.9619 63.1455 53.5439 60.0693C50.126 56.9932 48.3828 52.7663 48.3145 47.3887V14.2344H58.5684V47.0811C58.5684 50.3395 59.3431 52.7207 60.8926 54.2246C62.4648 55.7057 64.6296 56.4463 67.3867 56.4463C73.1517 56.4463 76.0798 53.4157 76.1709 47.3545V14.2344H86.459Z" fill="#639BFF"/>
<path d="M39.1035 73.377L39.2002 74.6768C40.0238 73.667 41.1374 73.1621 42.541 73.1621C44.0378 73.1621 45.0654 73.7529 45.624 74.9346C46.4404 73.7529 47.6042 73.1621 49.1152 73.1621C50.3757 73.1621 51.3138 73.5309 51.9297 74.2686C52.5456 74.999 52.8535 76.1019 52.8535 77.5771V85H49.7383V77.5879C49.7383 76.929 49.6094 76.4492 49.3516 76.1484C49.0938 75.8405 48.639 75.6865 47.9873 75.6865C47.0563 75.6865 46.4118 76.1305 46.0537 77.0186L46.0645 85H42.96V77.5986C42.96 76.9255 42.8275 76.4385 42.5625 76.1377C42.2975 75.8369 41.8464 75.6865 41.209 75.6865C40.3281 75.6865 39.6908 76.0518 39.2969 76.7822V85H36.1924V73.377H39.1035ZM58.5254 85H55.4102V68.5H58.5254V85Z" fill="#639BFF"/>
</g>
<defs>
<clipPath id="clip0">
<rect width="97" height="90" fill="white"/>
</clipPath>
</defs>
</svg>
