<svg width="657" height="479" viewBox="0 0 657 479" fill="none" xmlns="http://www.w3.org/2000/svg">
<g id="Frame 1">
<rect width="657" height="479" fill="white"/>
<rect id="Rectangle 1" x="190" y="131" width="336" height="216" rx="24" fill="#3FA0FF"/>
<circle id="Ellipse 1" cx="501" cy="322" r="12" fill="#EEEEEE"/>
<circle id="Ellipse 2" cx="469" cy="322" r="12" fill="#EEEEEE"/>
<rect id="Rectangle 2" x="198" y="190" width="239" height="18" rx="9" fill="#5A5A5A"/>
<rect id="Rectangle 3" x="451" y="190" width="18" height="18" rx="9" fill="#5A5A5A"/>
<path id="Days Remaining" d="M149.306 88.7H157.571C159.717 88.7 161.612 89.135 163.255 90.005C164.898 90.8557 166.174 92.0543 167.083 93.601C167.992 95.1283 168.446 96.878 168.446 98.85C168.446 100.822 167.992 102.581 167.083 104.128C166.174 105.655 164.898 106.854 163.255 107.724C161.612 108.575 159.717 109 157.571 109H149.306V88.7ZM157.455 107.144C159.234 107.144 160.79 106.796 162.124 106.1C163.458 105.385 164.492 104.408 165.227 103.171C165.962 101.914 166.329 100.474 166.329 98.85C166.329 97.226 165.962 95.7953 165.227 94.558C164.492 93.3013 163.458 92.325 162.124 91.629C160.79 90.9137 159.234 90.556 157.455 90.556H151.452V107.144H157.455ZM178.166 93.63C180.157 93.63 181.685 94.1327 182.748 95.138C183.811 96.124 184.343 97.5933 184.343 99.546V109H182.371V106.622C181.907 107.415 181.221 108.033 180.312 108.478C179.423 108.923 178.359 109.145 177.122 109.145C175.421 109.145 174.067 108.739 173.062 107.927C172.057 107.115 171.554 106.042 171.554 104.708C171.554 103.413 172.018 102.369 172.946 101.576C173.893 100.783 175.392 100.387 177.441 100.387H182.284V99.459C182.284 98.1443 181.917 97.1487 181.182 96.472C180.447 95.776 179.374 95.428 177.963 95.428C176.996 95.428 176.068 95.5923 175.179 95.921C174.29 96.2303 173.526 96.6653 172.888 97.226L171.96 95.689C172.733 95.0317 173.661 94.529 174.744 94.181C175.827 93.8137 176.967 93.63 178.166 93.63ZM177.441 107.521C178.601 107.521 179.597 107.26 180.428 106.738C181.259 106.197 181.878 105.423 182.284 104.418V101.924H177.499C174.889 101.924 173.584 102.833 173.584 104.65C173.584 105.539 173.922 106.245 174.599 106.767C175.276 107.27 176.223 107.521 177.441 107.521ZM202.47 93.746L194.843 110.827C194.225 112.258 193.509 113.273 192.697 113.872C191.885 114.471 190.909 114.771 189.768 114.771C189.034 114.771 188.347 114.655 187.709 114.423C187.071 114.191 186.52 113.843 186.056 113.379L187.013 111.842C187.787 112.615 188.715 113.002 189.797 113.002C190.493 113.002 191.083 112.809 191.566 112.422C192.069 112.035 192.533 111.378 192.958 110.45L193.625 108.971L186.81 93.746H188.956L194.698 106.709L200.44 93.746H202.47ZM209.289 109.145C208.052 109.145 206.863 108.971 205.722 108.623C204.601 108.256 203.721 107.801 203.083 107.26L204.011 105.636C204.649 106.139 205.451 106.554 206.418 106.883C207.385 107.192 208.39 107.347 209.434 107.347C210.826 107.347 211.851 107.134 212.508 106.709C213.185 106.264 213.523 105.646 213.523 104.853C213.523 104.292 213.339 103.857 212.972 103.548C212.605 103.219 212.141 102.978 211.58 102.823C211.019 102.649 210.275 102.485 209.347 102.33C208.11 102.098 207.114 101.866 206.36 101.634C205.606 101.383 204.958 100.967 204.417 100.387C203.895 99.807 203.634 99.0047 203.634 97.98C203.634 96.704 204.166 95.66 205.229 94.848C206.292 94.036 207.771 93.63 209.666 93.63C210.652 93.63 211.638 93.7653 212.624 94.036C213.61 94.2873 214.422 94.6257 215.06 95.051L214.161 96.704C212.904 95.834 211.406 95.399 209.666 95.399C208.351 95.399 207.356 95.631 206.679 96.095C206.022 96.559 205.693 97.168 205.693 97.922C205.693 98.502 205.877 98.966 206.244 99.314C206.631 99.662 207.104 99.923 207.665 100.097C208.226 100.252 208.999 100.416 209.985 100.59C211.203 100.822 212.179 101.054 212.914 101.286C213.649 101.518 214.277 101.914 214.799 102.475C215.321 103.036 215.582 103.809 215.582 104.795C215.582 106.129 215.021 107.192 213.9 107.985C212.798 108.758 211.261 109.145 209.289 109.145ZM241.275 109L236.635 102.475C236.113 102.533 235.572 102.562 235.011 102.562H229.559V109H227.413V88.7H235.011C237.602 88.7 239.632 89.3187 241.101 90.556C242.571 91.7933 243.305 93.4947 243.305 95.66C243.305 97.2453 242.899 98.589 242.087 99.691C241.295 100.774 240.154 101.557 238.665 102.04L243.624 109H241.275ZM234.953 100.735C236.964 100.735 238.501 100.29 239.564 99.401C240.628 98.5117 241.159 97.2647 241.159 95.66C241.159 94.0167 240.628 92.76 239.564 91.89C238.501 91.0007 236.964 90.556 234.953 90.556H229.559V100.735H234.953ZM261.217 102.011H248.457C248.573 103.596 249.182 104.882 250.284 105.868C251.386 106.835 252.778 107.318 254.46 107.318C255.408 107.318 256.278 107.154 257.07 106.825C257.863 106.477 258.549 105.974 259.129 105.317L260.289 106.651C259.613 107.463 258.762 108.082 257.737 108.507C256.732 108.932 255.62 109.145 254.402 109.145C252.836 109.145 251.444 108.816 250.226 108.159C249.028 107.482 248.09 106.554 247.413 105.375C246.737 104.196 246.398 102.862 246.398 101.373C246.398 99.8843 246.717 98.5503 247.355 97.371C248.013 96.1917 248.902 95.2733 250.023 94.616C251.164 93.9587 252.44 93.63 253.851 93.63C255.263 93.63 256.529 93.9587 257.65 94.616C258.772 95.2733 259.651 96.1917 260.289 97.371C260.927 98.531 261.246 99.865 261.246 101.373L261.217 102.011ZM253.851 95.399C252.382 95.399 251.145 95.8727 250.139 96.82C249.153 97.748 248.593 98.966 248.457 100.474H259.274C259.139 98.966 258.569 97.748 257.563 96.82C256.577 95.8727 255.34 95.399 253.851 95.399ZM284.461 93.63C286.375 93.63 287.874 94.181 288.956 95.283C290.058 96.385 290.609 98.009 290.609 100.155V109H288.55V100.358C288.55 98.7727 288.164 97.5643 287.39 96.733C286.636 95.9017 285.563 95.486 284.171 95.486C282.586 95.486 281.339 95.979 280.43 96.965C279.522 97.9317 279.067 99.2753 279.067 100.996V109H277.008V100.358C277.008 98.7727 276.622 97.5643 275.848 96.733C275.094 95.9017 274.012 95.486 272.6 95.486C271.034 95.486 269.787 95.979 268.859 96.965C267.951 97.9317 267.496 99.2753 267.496 100.996V109H265.437V93.746H267.409V96.53C267.951 95.602 268.705 94.8867 269.671 94.384C270.638 93.8813 271.75 93.63 273.006 93.63C274.282 93.63 275.384 93.9007 276.312 94.442C277.26 94.9833 277.965 95.7857 278.429 96.849C278.99 95.8437 279.792 95.0607 280.836 94.5C281.9 93.92 283.108 93.63 284.461 93.63ZM301.529 93.63C303.521 93.63 305.048 94.1327 306.111 95.138C307.175 96.124 307.706 97.5933 307.706 99.546V109H305.734V106.622C305.27 107.415 304.584 108.033 303.675 108.478C302.786 108.923 301.723 109.145 300.485 109.145C298.784 109.145 297.431 108.739 296.425 107.927C295.42 107.115 294.917 106.042 294.917 104.708C294.917 103.413 295.381 102.369 296.309 101.576C297.257 100.783 298.755 100.387 300.804 100.387H305.647V99.459C305.647 98.1443 305.28 97.1487 304.545 96.472C303.811 95.776 302.738 95.428 301.326 95.428C300.36 95.428 299.432 95.5923 298.542 95.921C297.653 96.2303 296.889 96.6653 296.251 97.226L295.323 95.689C296.097 95.0317 297.025 94.529 298.107 94.181C299.19 93.8137 300.331 93.63 301.529 93.63ZM300.804 107.521C301.964 107.521 302.96 107.26 303.791 106.738C304.623 106.197 305.241 105.423 305.647 104.418V101.924H300.862C298.252 101.924 296.947 102.833 296.947 104.65C296.947 105.539 297.286 106.245 297.962 106.767C298.639 107.27 299.586 107.521 300.804 107.521ZM313.299 93.746H315.358V109H313.299V93.746ZM314.343 90.411C313.917 90.411 313.56 90.266 313.27 89.976C312.98 89.686 312.835 89.338 312.835 88.932C312.835 88.5453 312.98 88.207 313.27 87.917C313.56 87.627 313.917 87.482 314.343 87.482C314.768 87.482 315.126 87.627 315.416 87.917C315.706 88.1877 315.851 88.5163 315.851 88.903C315.851 89.3283 315.706 89.686 315.416 89.976C315.126 90.266 314.768 90.411 314.343 90.411ZM328.859 93.63C330.773 93.63 332.29 94.1907 333.412 95.312C334.552 96.414 335.123 98.0283 335.123 100.155V109H333.064V100.358C333.064 98.7727 332.667 97.5643 331.875 96.733C331.082 95.9017 329.951 95.486 328.482 95.486C326.838 95.486 325.533 95.979 324.567 96.965C323.619 97.9317 323.146 99.2753 323.146 100.996V109H321.087V93.746H323.059V96.559C323.619 95.631 324.393 94.9157 325.379 94.413C326.384 93.891 327.544 93.63 328.859 93.63ZM354.892 93.746V107.144C354.892 109.735 354.254 111.649 352.978 112.886C351.722 114.143 349.817 114.771 347.265 114.771C345.854 114.771 344.51 114.558 343.234 114.133C341.978 113.727 340.953 113.157 340.16 112.422L341.204 110.856C341.939 111.513 342.828 112.026 343.872 112.393C344.936 112.76 346.047 112.944 347.207 112.944C349.141 112.944 350.562 112.49 351.47 111.581C352.379 110.692 352.833 109.3 352.833 107.405V105.462C352.195 106.429 351.354 107.163 350.31 107.666C349.286 108.169 348.145 108.42 346.888 108.42C345.458 108.42 344.153 108.111 342.973 107.492C341.813 106.854 340.895 105.974 340.218 104.853C339.561 103.712 339.232 102.427 339.232 100.996C339.232 99.5653 339.561 98.2893 340.218 97.168C340.895 96.0467 341.813 95.1767 342.973 94.558C344.133 93.9393 345.438 93.63 346.888 93.63C348.184 93.63 349.353 93.891 350.397 94.413C351.441 94.935 352.282 95.689 352.92 96.675V93.746H354.892ZM347.091 106.593C348.193 106.593 349.189 106.361 350.078 105.897C350.968 105.414 351.654 104.747 352.137 103.896C352.64 103.045 352.891 102.079 352.891 100.996C352.891 99.9133 352.64 98.9563 352.137 98.125C351.654 97.2743 350.968 96.617 350.078 96.153C349.208 95.6697 348.213 95.428 347.091 95.428C345.989 95.428 344.994 95.66 344.104 96.124C343.234 96.588 342.548 97.2453 342.045 98.096C341.562 98.9467 341.32 99.9133 341.32 100.996C341.32 102.079 341.562 103.045 342.045 103.896C342.548 104.747 343.234 105.414 344.104 105.897C344.994 106.361 345.989 106.593 347.091 106.593Z" fill="#1A3345"/>
<path id="days_remaining_value" d="M251.79 253.025C255.777 253.675 258.832 255.17 260.955 257.51C263.078 259.807 264.14 262.667 264.14 266.09C264.14 268.733 263.447 271.182 262.06 273.435C260.673 275.645 258.55 277.422 255.69 278.765C252.873 280.108 249.407 280.78 245.29 280.78C242.083 280.78 238.92 280.368 235.8 279.545C232.723 278.678 230.102 277.465 227.935 275.905L232.03 267.845C233.763 269.145 235.757 270.163 238.01 270.9C240.307 271.593 242.647 271.94 245.03 271.94C247.673 271.94 249.753 271.442 251.27 270.445C252.787 269.405 253.545 267.953 253.545 266.09C253.545 262.363 250.707 260.5 245.03 260.5H240.22V253.545L249.58 242.95H230.21V234.5H262.06V241.325L251.79 253.025ZM283.967 251.595C290.38 251.595 295.104 252.873 298.137 255.43C301.214 257.987 302.752 261.41 302.752 265.7C302.752 268.473 302.059 271.008 300.672 273.305C299.285 275.558 297.162 277.378 294.302 278.765C291.485 280.108 287.997 280.78 283.837 280.78C280.63 280.78 277.467 280.368 274.347 279.545C271.27 278.678 268.649 277.465 266.482 275.905L270.642 267.845C272.375 269.145 274.369 270.163 276.622 270.9C278.875 271.593 281.194 271.94 283.577 271.94C286.22 271.94 288.3 271.42 289.817 270.38C291.334 269.34 292.092 267.888 292.092 266.025C292.092 264.075 291.29 262.602 289.687 261.605C288.127 260.608 285.397 260.11 281.497 260.11H269.862L272.202 234.5H299.957V242.95H280.977L280.262 251.595H283.967ZM328.929 251.465C331.833 251.465 334.476 252.05 336.859 253.22C339.243 254.39 341.128 256.058 342.514 258.225C343.901 260.348 344.594 262.818 344.594 265.635C344.594 268.668 343.836 271.333 342.319 273.63C340.803 275.927 338.723 277.703 336.079 278.96C333.479 280.173 330.576 280.78 327.369 280.78C320.999 280.78 316.016 278.83 312.419 274.93C308.823 271.03 307.024 265.462 307.024 258.225C307.024 253.068 307.999 248.648 309.949 244.965C311.899 241.282 314.608 238.487 318.074 236.58C321.584 234.673 325.636 233.72 330.229 233.72C332.656 233.72 334.974 234.002 337.184 234.565C339.438 235.085 341.344 235.843 342.904 236.84L339.004 244.575C336.751 243.058 333.913 242.3 330.489 242.3C326.633 242.3 323.578 243.427 321.324 245.68C319.071 247.933 317.858 251.205 317.684 255.495C320.371 252.808 324.119 251.465 328.929 251.465ZM326.784 272.915C329.038 272.915 330.858 272.308 332.244 271.095C333.674 269.882 334.389 268.235 334.389 266.155C334.389 264.075 333.674 262.428 332.244 261.215C330.858 259.958 328.994 259.33 326.654 259.33C324.358 259.33 322.473 259.98 320.999 261.28C319.526 262.537 318.789 264.162 318.789 266.155C318.789 268.148 319.504 269.773 320.934 271.03C322.364 272.287 324.314 272.915 326.784 272.915Z" fill="#5A5A5A"/>
</g>
</svg>
