<svg width="297" height="193" viewBox="0 0 297 193" fill="none" xmlns="http://www.w3.org/2000/svg">
<g clip-path="url(#clip0)">
<rect x="153.036" y="99.0001" width="45" height="27" rx="5" fill="#F1F1F1"/>
<rect x="155.805" y="101.634" width="29.7692" height="2.63415" rx="1.31707" fill="#D7D7D7"/>
<rect x="155.805" y="101.634" width="29.7692" height="2.63415" rx="1.31707" fill="#D7D7D7"/>
<rect x="155.805" y="101.634" width="29.7692" height="2.63415" rx="1.31707" fill="#D7D7D7"/>
<rect x="155.805" y="101.634" width="29.7692" height="2.63415" rx="1.31707" fill="#D7D7D7"/>
<rect x="155.805" y="109.537" width="39.4615" height="14.4878" rx="4" fill="#F8F8F8"/>
<rect x="156.497" y="104.927" width="15.9231" height="0.658537" rx="0.329268" fill="#D7D7D7"/>
<rect x="156.497" y="104.927" width="15.9231" height="0.658537" rx="0.329268" fill="#D7D7D7"/>
<rect x="156.497" y="104.927" width="15.9231" height="0.658537" rx="0.329268" fill="#D7D7D7"/>
<rect x="156.497" y="104.927" width="15.9231" height="0.658537" rx="0.329268" fill="#D7D7D7"/>
<rect x="189.036" y="101.634" width="6.23077" height="5.92683" rx="2.96341" fill="#F2CCCC"/>
<rect x="226.111" y="78.0001" width="45" height="27" rx="5" transform="rotate(15.1914 226.111 78.0001)" fill="#F1F1F1"/>
<rect x="228.093" y="81.2678" width="29.7692" height="2.63415" rx="1.31707" transform="rotate(15.1914 228.093 81.2678)" fill="#D7D7D7"/>
<rect x="228.093" y="81.2678" width="29.7692" height="2.63415" rx="1.31707" transform="rotate(15.1914 228.093 81.2678)" fill="#D7D7D7"/>
<rect x="228.093" y="81.2678" width="29.7692" height="2.63415" rx="1.31707" transform="rotate(15.1914 228.093 81.2678)" fill="#D7D7D7"/>
<rect x="228.093" y="81.2678" width="29.7692" height="2.63415" rx="1.31707" transform="rotate(15.1914 228.093 81.2678)" fill="#D7D7D7"/>
<rect x="226.022" y="88.8942" width="39.4615" height="14.4878" rx="4" transform="rotate(15.1914 226.022 88.8942)" fill="#F8F8F8"/>
<rect x="227.898" y="84.627" width="15.9231" height="0.658537" rx="0.329268" transform="rotate(15.1914 227.898 84.627)" fill="#D7D7D7"/>
<rect x="227.898" y="84.627" width="15.9231" height="0.658537" rx="0.329268" transform="rotate(15.1914 227.898 84.627)" fill="#D7D7D7"/>
<rect x="227.898" y="84.627" width="15.9231" height="0.658537" rx="0.329268" transform="rotate(15.1914 227.898 84.627)" fill="#D7D7D7"/>
<rect x="227.898" y="84.627" width="15.9231" height="0.658537" rx="0.329268" transform="rotate(15.1914 227.898 84.627)" fill="#D7D7D7"/>
<rect x="260.163" y="89.9758" width="6.23077" height="5.92683" rx="2.96341" transform="rotate(15.1914 260.163 89.9758)" fill="#A4F6AD"/>
<rect x="173.036" y="53.6998" width="65" height="41" rx="5" transform="rotate(-33.314 173.036 53.6998)" fill="#F1F1F1"/>
<rect x="178.575" y="54.8456" width="43" height="4" rx="2" transform="rotate(-33.314 178.575 54.8456)" fill="#D7D7D7"/>
<rect x="178.575" y="54.8456" width="43" height="4" rx="2" transform="rotate(-33.314 178.575 54.8456)" fill="#D7D7D7"/>
<rect x="178.575" y="54.8456" width="43" height="4" rx="2" transform="rotate(-33.314 178.575 54.8456)" fill="#D7D7D7"/>
<rect x="178.575" y="54.8456" width="43" height="4" rx="2" transform="rotate(-33.314 178.575 54.8456)" fill="#D7D7D7"/>
<rect x="185.166" y="64.8737" width="57" height="22" rx="4" transform="rotate(-33.314 185.166 64.8737)" fill="#F8F8F8"/>
<rect x="182.157" y="58.4747" width="23" height="1" rx="0.5" transform="rotate(-33.314 182.157 58.4747)" fill="#D7D7D7"/>
<rect x="182.157" y="58.4747" width="23" height="1" rx="0.5" transform="rotate(-33.314 182.157 58.4747)" fill="#D7D7D7"/>
<rect x="182.157" y="58.4747" width="23" height="1" rx="0.5" transform="rotate(-33.314 182.157 58.4747)" fill="#D7D7D7"/>
<rect x="182.157" y="58.4747" width="23" height="1" rx="0.5" transform="rotate(-33.314 182.157 58.4747)" fill="#D7D7D7"/>
<rect x="218.687" y="28.4827" width="9" height="9" rx="4" transform="rotate(-33.314 218.687 28.4827)" fill="#A4F7AD"/>
<path d="M130.333 134.318H123.865V141H120.496V124.649H131.142V127.378H123.865V131.6H130.333V134.318ZM145.472 124.649V135.419C145.472 137.208 144.911 138.623 143.788 139.664C142.672 140.704 141.145 141.225 139.206 141.225C137.296 141.225 135.78 140.719 134.657 139.709C133.534 138.698 132.961 137.309 132.939 135.542V124.649H136.308V135.441C136.308 136.512 136.563 137.294 137.072 137.788C137.588 138.275 138.3 138.518 139.206 138.518C141.1 138.518 142.062 137.522 142.092 135.531V124.649H145.472ZM151.065 128.849L151.166 130.208C152.027 129.152 153.191 128.624 154.659 128.624C156.223 128.624 157.298 129.242 157.882 130.477C158.735 129.242 159.952 128.624 161.532 128.624C162.849 128.624 163.83 129.01 164.474 129.781C165.118 130.545 165.44 131.698 165.44 133.24V141H162.183V133.251C162.183 132.562 162.048 132.061 161.779 131.746C161.509 131.424 161.034 131.263 160.352 131.263C159.379 131.263 158.705 131.727 158.331 132.656L158.342 141H155.097V133.262C155.097 132.559 154.958 132.049 154.681 131.735C154.404 131.421 153.932 131.263 153.266 131.263C152.345 131.263 151.679 131.645 151.267 132.409V141H148.021V128.849H151.065ZM171.37 141H168.113V123.75H171.37V141Z" fill="#639BFF"/>
<path d="M94.0007 87.4219L98.5007 87.422L98.5009 77.422L103.501 77.4221" stroke="black"/>
<rect x="103.001" y="69.4221" width="15" height="16" rx="2" fill="#E8B9EC"/>
<rect x="91.0359" y="106" width="15" height="16" rx="2" fill="#B9BEEC"/>
<rect x="80.0008" y="81.4216" width="15" height="16" rx="2" fill="#E8B9EC"/>
<rect x="119.036" y="96.0001" width="15" height="16" rx="2" fill="#F1F1F1"/>
<rect x="121.036" y="98.0001" width="11" height="1" rx="0.5" fill="#D7D7D7"/>
<rect x="121.036" y="98.0001" width="11" height="1" rx="0.5" fill="#D7D7D7"/>
<rect x="121.036" y="98.0001" width="11" height="1" rx="0.5" fill="#D7D7D7"/>
<rect x="121.036" y="98.0001" width="11" height="1" rx="0.5" fill="#D7D7D7"/>
<rect x="121.036" y="100" width="11" height="1" rx="0.5" fill="#D7D7D7"/>
<rect x="121.036" y="100" width="11" height="1" rx="0.5" fill="#D7D7D7"/>
<rect x="121.036" y="100" width="11" height="1" rx="0.5" fill="#D7D7D7"/>
<rect x="121.036" y="100" width="11" height="1" rx="0.5" fill="#D7D7D7"/>
<rect x="121.036" y="102" width="11" height="1" rx="0.5" fill="#D7D7D7"/>
<rect x="121.036" y="102" width="11" height="1" rx="0.5" fill="#D7D7D7"/>
<rect x="121.036" y="102" width="11" height="1" rx="0.5" fill="#D7D7D7"/>
<rect x="121.036" y="102" width="11" height="1" rx="0.5" fill="#D7D7D7"/>
<rect x="121.036" y="104" width="7" height="1" rx="0.5" fill="#D7D7D7"/>
<rect x="121.036" y="104" width="7" height="1" rx="0.5" fill="#D7D7D7"/>
<rect x="121.036" y="104" width="7" height="1" rx="0.5" fill="#D7D7D7"/>
<rect x="121.036" y="104" width="7" height="1" rx="0.5" fill="#D7D7D7"/>
</g>
<defs>
<clipPath id="clip0">
<rect width="297" height="193" fill="white"/>
</clipPath>
</defs>
</svg>
