<svg width="288" height="295" viewBox="0 0 288 295" fill="none" xmlns="http://www.w3.org/2000/svg">
<g id="Frame 1">
<rect width="288" height="295" fill="white"/>
<g id="Parchment">
<g id="Vector 1">
<path d="M99.5083 192.766V115.526C99.5083 99.8253 113.174 97.3773 120.007 98.1159H201C195.5 99.0656 184.001 103.877 182.002 115.526C180.002 127.176 181.168 171.873 182.002 192.766C182.002 197.83 179.402 207.96 169.003 207.96H84.071C82.4212 208.05 81.2479 207.96 81.0098 207.96H84.071C89.3504 207.673 99.5083 205.548 99.5083 192.766Z" fill="#FDFFEC"/>
<path d="M99.5083 192.766V115.526C99.5083 99.8253 113.174 97.3773 120.007 98.1159H201C195.5 99.0656 184.001 103.877 182.002 115.526C180.002 127.176 181.168 171.873 182.002 192.766C182.002 197.83 179.402 207.96 169.003 207.96C156.004 207.96 80.0099 207.96 81.0098 207.96C82.0097 207.96 99.5083 209.543 99.5083 192.766Z" stroke="black" stroke-width="2"/>
</g>
<path id="Vector 2" d="M112 133L169.999 131.945" stroke="black" stroke-width="2"/>
<path id="Vector 3" d="M112 143.055L169.999 142" stroke="black" stroke-width="2"/>
<path id="Vector 4" d="M112 153.055L169.999 152" stroke="black" stroke-width="2"/>
<path id="Vector 5" d="M112 161.055L156 161.009" stroke="black" stroke-width="2"/>
</g>
<g id="Frame 2">
<path id="Vector 6" d="M111.5 157.5C111.667 152.667 102 136.6 62 111C67.6 144.6 83 156 90 157.5H77.5C80.3333 159.5 87.8 164.4 95 168C102.2 171.6 106 169.5 107 168L123 183L111.5 168V157.5Z" fill="#7A7373" stroke="black"/>
</g>
</g>
</svg>
